<?xml version="1.0"?>
<svg t="1665281120739" class="icon" viewBox="0 0 1024 1024" version="1.1" xmlns="http://www.w3.org/2000/svg" p-id="8138" width="200" height="200">
    <path d="M1000.533333 51.2c0-2.133333 0-2.133333-2.133333-4.266667 0-2.133333-2.133333-2.133333-2.133333-4.266666s-2.133333-2.133333-2.133334-4.266667c-2.133333-2.133333-4.266667-4.266667-4.266666-6.4-2.133333-2.133333-4.266667-4.266667-6.4-4.266667 0 0-2.133333-2.133333-4.266667-2.133333s-2.133333-2.133333-4.266667-2.133333-2.133333 0-4.266666-2.133334c-2.133333 0-2.133333 0-4.266667-2.133333h-179.2c-23.466667 0-42.666667 19.2-42.666667 42.666667s19.2 42.666667 42.666667 42.666666h68.266667l-96 96C712.533333 168.533333 657.066667 149.333333 597.333333 149.333333c-68.266667 0-132.266667 25.6-183.466666 70.4-17.066667 14.933333-19.2 42.666667-4.266667 59.733334 14.933333 17.066667 42.666667 19.2 59.733333 4.266666 34.133333-32 81.066667-49.066667 128-49.066666 51.2 0 100.266667 19.2 136.533334 55.466666 36.266667 36.266667 55.466667 85.333333 55.466666 136.533334 0 106.666667-85.333333 192-192 192-81.066667 0-151.466667-51.2-179.2-125.866667-8.533333-21.333333-32-34.133333-55.466666-25.6-21.333333 8.533333-34.133333 32-25.6 55.466667C377.6 631.466667 482.133333 704 597.333333 704c153.6 0 277.333333-123.733333 277.333334-277.333333 0-59.733333-19.2-117.333333-53.333334-164.266667L917.333333 166.4V234.666667c0 23.466667 19.2 42.666667 42.666667 42.666666s42.666667-19.2 42.666667-42.666666V64v-8.533333c-2.133333 0-2.133333-2.133333-2.133334-4.266667" fill="#ff9900" p-id="8139" data-spm-anchor-id="a313x.7781069.0.i25" class="selected"></path>
    <path d="M34.133333 989.866667c8.533333 8.533333 19.2 12.8 29.866667 12.8s21.333333-4.266667 29.866667-12.8L149.333333 934.4l55.466667 55.466667c8.533333 8.533333 19.2 12.8 29.866667 12.8s21.333333-4.266667 29.866666-12.8c17.066667-17.066667 17.066667-42.666667 0-59.733334L209.066667 874.666667l53.333333-53.333334c46.933333 34.133333 104.533333 53.333333 164.266667 53.333334 68.266667 0 132.266667-25.6 183.466666-70.4 17.066667-14.933333 19.2-42.666667 4.266667-59.733334-14.933333-17.066667-42.666667-19.2-59.733333-4.266666-34.133333 32-81.066667 49.066667-128 49.066666-51.2 0-100.266667-19.2-136.533334-55.466666-36.266667-36.266667-55.466667-85.333333-55.466666-136.533334 0-106.666667 85.333333-192 192-192 81.066667 0 151.466667 51.2 179.2 125.866667 8.533333 21.333333 32 34.133333 55.466666 25.6 21.333333-8.533333 34.133333-32 25.6-55.466667C646.4 392.533333 541.866667 320 426.666667 320c-153.6 0-277.333333 123.733333-277.333334 277.333333 0 59.733333 19.2 117.333333 53.333334 164.266667L149.333333 814.933333l-55.466666-55.466666c-17.066667-17.066667-42.666667-17.066667-59.733334 0-17.066667 17.066667-17.066667 42.666667 0 59.733333L89.6 874.666667l-55.466667 55.466666c-17.066667 17.066667-17.066667 42.666667 0 59.733334" fill="#ff9900" p-id="8140" data-spm-anchor-id="a313x.7781069.0.i28" class="selected"></path>
</svg>