<?xml version="1.0" encoding="UTF-8"?>
<svg viewBox="0 0 887.02698 482.99161" xmlns="http://www.w3.org/2000/svg">
 <defs>
  <radialGradient id="c" cx="1488.9" cy="85.381" r="342.95" fx="1723.1" fy="-203.42" gradientTransform="matrix(.46732 0 0 .65884 -515.25 193.1)" gradientUnits="userSpaceOnUse">
   <stop stop-color="#fcff38" offset="0"/>
   <stop stop-color="#ffd42a" stop-opacity="0" offset="1"/>
  </radialGradient>
  <radialGradient id="b" cx="495.6" cy="660.45" r="763.27" gradientTransform="matrix(.57802 0 0 .04623 154.41 414.57)" gradientUnits="userSpaceOnUse">
   <stop stop-color="#f59" offset="0"/>
   <stop stop-color="#f59" stop-opacity="0" offset="1"/>
  </radialGradient>
  <radialGradient id="d" cx="39.924" cy="271.29" r="190.01" fx="153.71" fy="125.26" gradientTransform="matrix(-.96589 -.01561 -.01827 1.1511 753.13 -90.22)" gradientUnits="userSpaceOnUse">
   <stop stop-color="#5f5" offset="0"/>
   <stop stop-color="#5f5" stop-opacity="0" offset="1"/>
  </radialGradient>
  <radialGradient id="a" cx="442.84" cy="388.56" r="327.29" fx="443.18" fy="62.333" gradientTransform="matrix(.62486 0 0 .72438 136.75 271.74)" gradientUnits="userSpaceOnUse">
   <stop stop-color="#5ad5d5" offset="0"/>
   <stop stop-color="#0ff" stop-opacity="0" offset="1"/>
  </radialGradient>
 </defs>
 <g transform="translate(1.5056 3.0742)">
  <path d="m-0.23918-3.0742h884.66c2.1918 38.29 0.31268 77.752 0.93905 116.49v365.74c-55.107 1.523-111.9 0.2172-167.66 0.65257h-717.95c-2.1184-161.31-0.93914-336.68-0.93914-482.23z" fill="#162d50"/>
  <path d="m168.76 191.58c-3.444-8.9591-3.4255-17.492-1.597-20.407 1.5098 11.468 2.1209 14.932 1.597 20.407z" fill="#fc0"/>
  <path d="m171.13 160.96c4.021-10.617-8.5036-51.85-4.7148-26.812 4.0121 10.2 2.0705 19.614 4.7148 26.812z" fill="#fc0"/>
  <path d="m165.12-0.29827-6.5909 0.28749c0 19.131 0.65393 85.198 0.65393 104.33 2.8126-0.12131 4.77 7.3833 5.4115 6.3744 2.9987-4.7156-0.0755-25.918 0.19863-38.277 0.53746-24.232 0.1522-63.726 0.32677-72.714z"/>
  <path d="m164.68 223.1c-9.7507-13.829-4.9544-3.1455-5.5929 18.925 0 35.658-0.0467 92.784-0.0467 128.44 2.8126-0.22607 4.0993-18.009 5.2083-18.842 4.5671-3.43-0.55841-0.94435 1.6142-3.6394-1.2644-31.128-1.395-67.624-1.8424-70.373-2.8039-17.232 1.9649-5.2432 0.65967-54.512z"/>
  <path d="m155.2 214.2c10.459 14.488 39.24 35.524 9.6874 7.8662-1.679-3.4994-2.6174-3.8215-9.6874-7.8662z" fill="#fc0"/>
  <path d="m178.55 239.37c-1.9883 3.4609-0.58333 8.3343-1.5836 10.711-5.2004 12.355-1.3786 8.8225 1.6694 1.2305 1.2262-3.0542 0.34398-7.6294-0.0858-11.941z" fill="#fc0"/>
  <path d="m172 261.81c-26.324 5.6399 10.233 42.94 0.61315 28.264-13.565-9.0775-6.7303-20.703-0.61315-28.264z" fill="#fc0"/>
  <path d="m198.65 232.42c-0.64183 5.1299 2.8051 9.6542 1.5478 12.629-7.5997 17.978-1.9319 12.978 2.0863 0.14413 1.0435-3.3331-2.7099-8.059-3.634-12.773z" fill="#fc0"/>
  <path d="m196.18 224.3c14.993-20.596-40.615-24.621-17.252-18.941 15.869-0.33979 15.58 10.469 17.252 18.941z" fill="#fc0"/>
  <path d="m166.9 292.15c-1.3581 41.848 2.0178 68.008 1.8288 9.4512-1.0784-1.7877 1.6095-11.864-1.8288-9.4512z" fill="#fc0"/>
  <path d="m194.12 295.3c-4.6195 18.975-14.018 73.381-3.0367 25.342 0.27293-6.4288 7.3511-21.78 3.0367-25.342z" fill="#fc0"/>
  <path d="m180.1 354.64c-10.359 27.691-10.412 80.109-3.3711 21.489-1.0493-5.518 7.6283-18.563 3.3711-21.489z" fill="#fc0"/>
  <path d="m198.53 268.4c-5.9008 23.406 4.5931 13.89 0 0z" fill="#fc0"/>
  <path d="m202.62 269.99c19.426 0.11515 39.694 0.0109 57.953 8.311-10.038-9.7454-36.226-10.955-52.666-9.4081-1.616 1.2297-5.1945-2.3524-5.2874 1.0972z" fill="#fc0"/>
  <path d="m202.59 294.36c24.609 4.4054 69.903-10.273 19.574-1.8577-5.1395 3.3093-16.091-1.464-19.574 1.8577z" fill="#fc0"/>
  <path d="m264.12 283.71c-3.3944 26.4-37.516 35.459-57.518 51.642 20.909-10.591 56.62-25.465 59.767-51.161l-2.2498-0.48143z" fill="#fc0"/>
  <path d="m248.53 289.58c-18.403 5.9855-36.765 15.602-41.91 35.573 2.9305 2.2066 14.361-28.594 30.435-28.766 2.259-2.4994 13.799-2.9118 11.474-6.8076z" fill="#fc0"/>
  <path d="m195.29 333.19c-5.2403 11.946-9.9892 33.86-14.088 30.252 4.1047-2.3925 7.2574-17.185 7.0353-25.299-0.18467-6.7432 4.0461-4.0808 7.0528-4.9533z" fill="#fc0"/>
  <path d="m207.19 337.95c-7.1066 5.775-15.67 16.594-22.268 26.87 6.3712 2.2214 3.3072-4.1558 6.1728-6.2769 3.0445-2.2538 5.3255-7.902 7.9599-10.548 3.5546-3.5702 13.927-5.8648 8.1356-10.045z" fill="#fc0"/>
  <path d="m171.24 213.12c10.306-22.806 42.1-58.223 5.0016-16.259-1.1829 3.4232-11.821 14.578-5.0016 16.259z" fill="#fc0"/>
  <path d="m195.31 174.81c-7.9786-0.80542-41.571-22.286-24.89-8.6646 6.568 3.3163 18.444 10.705 24.89 8.6646z" fill="#fc0"/>
  <path d="m165.01 160.84c-4.7647-8.0437-4.5359-45.547-6.2852-30.125 2.4821 13.103-0.77109 22.821 6.2852 30.125z" fill="#fc0"/>
  <path d="m166.46 171.48c-2.7373-4.3525-5.1363-3.577-5.2899-2.1563-0.22361 2.0688 0.92669 13.217 0.92669 21.089 3.6434 1.6322 2.9239 5.2108 4.656 0.22024 1.9286-0.53789-0.28666-15.118-0.29285-19.153z"/>
  <path d="m162.62 182.42c-22.534-12.646-43.803-0.96706-14.206-3.7878 1.3929-1.3398 14.142 8.2591 14.206 3.7878z" fill="#fc0"/>
  <path d="m159.26 200.44c17.524-15.277 31.318-35.065 4.4629-7.8562 0.21354 1.8514-10.511 7.3352-4.4629 7.8562z" fill="#fc0"/>
  <path d="m180.22 179.25c-6.0909-4.0764-26.439-17.726-11.486-5.6431 3.4092 0.99682 8.5546 8.1088 11.486 5.6431z" fill="#fc0"/>
  <path d="m153.83 163.06c-6e-3 -2.862-3.7728-4.6891-1.6895-5.5832 6.2941-2.7016 13.259-6.323-2.5173-0.41189 1.0047 1.6044 0.38477 7.3708 4.2069 5.9951z" fill="#fc0"/>
  <path d="m161.66 183.63c-5.3382 10.505-7.0322 9.6289-0.71333 6.1842 0.10935-1.3525 2.8045-6.7071 0.71333-6.1842z" fill="#fc0"/>
  <path d="m165.44 160.87c-3.144-4.6608-3.4144 3.0382 0 0z" fill="#fc0"/>
  <path d="m161.86 166.83c-10.979-7.1626-3.777 2.5676 0 0z" fill="#fc0"/>
  <path d="m159.72 123.39c-7.8327-15.954-2.7831-16.907 1.854-0.0534l-1.854 0.0534z" fill="#fc0"/>
  <path d="m161.79 122.61c11.002 1.9173-3.1045-32.77-2.9569-17.243 7.5001 0.77619 5.4184 18.9 2.9569 17.243z" fill="#fc0"/>
  <path d="m124.68 180.45c-3.9124 22.371 7.4706 33.933 0.0315 6.3933-0.12995-1.1413 3.436-6.4692-0.0315-6.3933z" fill="#fc0"/>
  <path d="m152.69 203.56c-6.5744 2.5948 2.8084 29.52-8.8548 54.629 26.273-35.95 0.0163-36.565 8.8548-54.629z" fill="#fc0"/>
  <path d="m134.49 201.69c4.7634 24.871-33.901 67.472-15.632 77.092-13.697-24.676 29.108-52.627 15.632-77.092z" fill="#fc0"/>
  <path d="m122.39 204.18c-43.685 14.477-38.305 56.829-8.5325 81.07-19.096-21.739-37.334-64.817 9.6331-79.647l-1.1006-1.4232z" fill="#fc0"/>
  <path d="m136.31 260.84c-20.588 10.18-24.85 33.483-6.2825 6.3488-3.0142-0.66321 12.558-4.5345 6.2825-6.3488z" fill="#fc0"/>
  <path d="m160.59 383.62c-1.7634 2.6468 0.63829 31.949 0.63829 48.43 2.8126-0.10693 3.0879 1.0572 3.5883-8e-3 1.7718-3.7725-2.208-2.9853-0.73741-5.4845-0.93119-6.4012-5.8666-7.1212 0.57692-26.134-2.1228-6.5175-4.1776-8.2283-4.0661-16.803z"/>
  <path d="m163.47 403.77c-2.5228 1.2441-5.6022-0.92038-5.9105 2.1046-1.0562 10.366 9.6397 30.852 6.382 17.28-3.6072-8.8055-2.8591-14.377-0.4715-19.385z" fill="#fc0"/>
  <path d="m168.17 346.48c-20.896 7.4644-0.65309 70.918-3.5948 49.109-8.6848-16.272-2.0749-36.626 3.5948-49.109z" fill="#fc0"/>
  <path d="m182.76 204.4c1.8056-2.9313-3.8186-14.315-2.1172-7.4028 1.8016 2.8162 0.92974 5.4152 2.1172 7.4028z" fill="#fc0"/>
  <path d="m171.22 408.81c-1.8233 0.63937-1.0219 2.9167-1.6966 4.1795-0.73032 5.4262-4.4478 11.062-1.6323 16.46 0.89694 1.7816 3.6431 2.7684 5.8866 2.5838 1.7647-0.41803 0.75643-2.4728-0.97681-2.1206-3.451-0.21035-3.2732-3.6396-3.3032-5.6618 0.60494-4.4168 2.5307-8.642 3.0671-13.095 0.48472-1.0506 0.50469-2.5371-1.3448-2.3459z" fill="#fc0"/>
  <path d="m882.06 445.11c0 19.49-197.53 35.29-441.19 35.29s-441.19-15.8-441.19-35.29 197.53-35.29 441.19-35.29 441.19 15.8 441.19 35.29z" fill="url(#b)"/>
  <path d="m340.8 249.36c0 124.79-71.753 225.95-160.27 225.95s-160.27-101.16-160.27-225.95 71.753-225.95 160.27-225.95 160.27 101.16 160.27 225.95z" fill="url(#c)"/>
 </g>
 <g transform="translate(1.5056 3.0742)">
  <path d="m710.63 112.99c15.17 8.4721 24.557 20.437 4.536 4.901-1.3506-1.0803-15.222-9.5495-4.536-4.901z" fill="#5f5"/>
  <path d="m679.31 88.622c10.487 9.1102 24.92 19.998 5.3537 7.5966-4.6199-4.6976-12.644-15.845-5.3537-7.5966z" fill="#5f5"/>
  <path d="m687.13 164.52c-2.924-4.3195-8.8109-22.929-8.7357-12.625 0.1621 2.8512 8.3029 18.405 8.7357 12.625z" fill="#5f5"/>
  <path d="m675.41 210.31c-9.5338 45.439 1.4468 40.411 0 0z" fill="#5f5"/>
  <path d="m675.86 184.87c-2.1448 1.1773-2.6092 7.0468-2.8582 9.0961 0.1361 74.228-0.9405 159.72-0.968 224.7 0 0 2.0107 1.7767 3.6674 0.0907-0.036-75.732 0.15883-165 0.15883-233.88z"/>
  <path d="m672.17 243.62c2.919 14.575-2.718 3.2141 0 0z" fill="#5f5"/>
  <path d="m674.48 181.43c-0.71536 0.86549 5.0724 5.9979 6.2746 8.3972 1.4641 2.922-0.0927-3.0437-2.9471-5.4777-1.2725-1.0852-4.239-3.6974-3.3275-2.9195z" fill="#5f5"/>
  <path d="m682.59 180.9c6.5442 6.9915 3.3996 3.3663 1.3989 0.0562-1.573-2.6025-2.5572-4.8228-1.3989-0.0562z" fill="#5f5"/>
  <path d="m664.27 161.68c3.8088-5.4335-5.4655-24.482-2.41-12.789 2.6652 2.3112-0.8374 18.824 2.41 12.789z" fill="#5f5"/>
  <path d="m690.72 168.25c15.646 7.6452 51.022 11.668 13.792 3.3616-2.2981 1.2301-24.771-10.579-13.792-3.3616z" fill="#5f5"/>
  <path d="m693.54 181.62c13.778 6.447 41.66-0.2611 6.1342-0.33604-3.6792 1.0855-21.153-6.6913-6.1342 0.33604z" fill="#5f5"/>
  <path d="m680.26 145.67c7.5161-24.586-4.8228 1.9708 0 0z" fill="#5f5"/>
  <path d="m685.45 133.25c19.162 1.5224 13.837-19.527 12.22-12.408 2.1011 16.137-18.732 10.888-12.22 12.408z" fill="#5f5"/>
  <path d="m676.26 127.68c30.775-3.8236 11.774-28.478 9.1302-24.256 20.955 18.921-15.808 27.099-9.1302 24.256z" fill="#5f5"/>
  <path d="m667.75 115.03c-7.6601-18.318-15.167-37.789-15.381-58.243-3.3322 20.599 7.1427 40.544 14.274 58.857l2.0407 2.9012-0.9342-3.5146z" fill="#5f5"/>
  <path d="m657.1 57.749c4.9877-7.2956 7.1935-5.7323 8.9-2.92 3.2562 5.3659 6.5289 1.2086-2.8781-4.2912-3.8245-2.236-13.722 16.102-6.0219 7.2112z" fill="#5f5"/>
  <path d="m671.7 58.818c19.884 3.6491 31.819 60.574 21.566 30.13-7.0242-19.006-16.374-27.34-21.566-30.13z" fill="#5f5"/>
  <path d="m675.72-1.3599s-2.0107 0.05471-3.5635 0.05347c0 24.144 0.208 54.727 0.208 78.871 5.812 5.0717 3.7061-4.0927 3.6674-6.7073-0.4808-32.485-0.3119-48.073-0.3119-72.217z"/>
  <path d="m699.33 98.244c6.8468 5.0003 11.368 33.593 9.6485 15.305-1.2126-1.5-1.5838-2.4879-1.9771-5.4431-0.8786-6.6026-10.514-13.56-7.6714-9.8622z" fill="#5f5"/>
  <path d="m693.5 104.67c5.7394 1.4449 14.456 15.906 11.156 10.349 1.9342-6.0782-10.666-19.88-11.156-10.349z" fill="#5f5"/>
  <path d="m702.51 126.6c8.4813 10.821 47.464 16.806 17.268 11.811-4.6525 0.87575-28.015-17.543-17.268-11.811z" fill="#5f5"/>
  <path d="m734.7 132.57c16.338-3.9461 55.644 29.925 33.824 11.744-4.6287-10.025-42.883-16.296-33.824-11.744z" fill="#5f5"/>
  <path d="m729.75 138.49c7.4172 10.374 59.397 19.703 42.498 14.264-13.343 0.3062-43.534-16.218-42.498-14.264z" fill="#5f5"/>
  <path d="m789.77 149.86c3.4065-0.68548 9.7732 4.3948 4.1421 3.2623-6.3437-0.89773-12.827-1.6002-19.314-1.596 4.7695-1.104 9.9608-2.1074 15.172-1.6664z" fill="#5f5"/>
  <path d="m778.87 156.52c9.6483 2.1524 28.019-2.1525 20.103-1.6618-0.76249 2.503-31.597-0.15677-20.103 1.6618z" fill="#5f5"/>
  <path d="m667.05 174.58c-7.1582-0.89619-8.5155-3.8965-0.97429-13.671-9.8266 9.8106-8.071 15.089-0.8699 15.746l3.0109-0.0495-1.1667-2.0251 7e-5 -4e-5z" fill="#5f5"/>
  <path d="m677.92 171.72c-1.3134 1.9006-5.7983-0.45214-7.1678-3.778-1.1092-2.6937 0.52336-6.0998 2.0234-7.8153-2.3066 1.0947-4.0835 5.4994-2.6135 9.0225 1.4598 3.4988 6.1541 6.1277 7.4659 3.9198l1.5169-1.3057-1.225-0.0434z" fill="#5f5"/>
  <path d="m682 189.74c-9.3082 6.1386 3.0538 12.935 9.9273 13.412 17.823 0.39845-0.71756-22.626 5.7867-10.24 3.6799 8.161-8.7048 13.261-14.113 5.9301-8.2644-5.2159 1.0462-10.128-1.6006-9.103z" fill="#5f5"/>
  <path d="m721.13 184.57c6.878 0.91342 36.399 3.8946 23.45 2.2154-6.0664-0.0131-26.918-3.6409-23.45-2.2154z" fill="#5f5"/>
  <path d="m722.89 176.43c12.609 9.5997 28.236 9.9236 21.902 6.4653-3.1933 2.2757-28.236-10.286-21.902-6.4653z" fill="#5f5"/>
  <path d="m748.77 189.01c12.148 3.7705-6.8641-3.9699 0 0z" fill="#5f5"/>
  <path d="m753.67 188.47c9.4594-1.9767 11.103-4.5777 0.76972-0.80774-1.341 0.38064-5.3925 0.94204-0.76972 0.80774z" fill="#5f5"/>
  <path d="m752.05 184.22c25.585 0.56883-8.5356 3.2645 0 0z" fill="#5f5"/>
  <path d="m666.32 127.85c-7.3636 15.541-6.1612 27.03 0.46517 2.5476 2.0166-3.0526 5.7395-12.577-0.46517-2.5476z" fill="#5f5"/>
  <path d="m690.46 184.49c19.328 6.6223 16.125 58.906 25.226 44.01-18.791-12.624 4.1798-41.736-25.226-44.01z" fill="#5f5"/>
  <path d="m682.67 213.2c-1.9498 4.7221 28.939 25.408 18.35 16.441-8.7614-3.4664-17.926-19.425-18.35-16.441z" fill="#5f5"/>
  <path d="m689.7 204.72c2.1937 7.7228 19.072 27.417 17.666 21.109-7.4373-0.58737-16.136-25.379-17.666-21.109z" fill="#5f5"/>
  <path d="m686.94 204.4c-26.659 12.091 9.9333 28.756 26.97 31.27-18.704-6.8662-48.84-17.213-26.476-29.587 0.99283-0.99511 2.755-6.3058-0.49359-1.6821z" fill="#5f5"/>
  <path d="m664.1 181.75c1.6576 12.371-0.78003 54.036 3.4589 20.99-0.71296-1.9252-1.0329-32.974-3.4589-20.99z" fill="#5f5"/>
  <path d="m673.96 187.63c-2.9482 19.258-2.271 36.199 0.2786 3.0913 0.015-0.66532 2.1278-18.635-0.2786-3.0913z" fill="#5f5"/>
  <path d="m665.63 222.4c1.2126 12.686 3.7338 30.83 2.8863 7.1926 0.10125-0.30427-3.3488-18.433-2.8863-7.1926z" fill="#5f5"/>
  <path d="m668.43 244.74c6.114 34.087 4.0591 2.6668 0 0z" fill="#5f5"/>
  <path d="m671.88 68.407c1.7349 2.9918 2.2639 7.1983 3.4996 10.654 1.8576 6.8724 4.1219 13.651 6.2337 20.372 0.5504 1.223 0.3442 4.2529-1.1095 3.0176-2.9826-5.347-4.8622-11.721-6.8778-17.858-1.1503-4.9208-2.1184-10.052-2.8116-15.154-0.1776-0.73605 0.6206-1.741 1.0656-1.0312z" fill="#5f5"/>
  <path d="m533.43 221.45c0 120.81 78.879 203.93 176.18 203.93s176.18-83.112 176.18-203.93-78.879-218.75-176.18-218.75-176.18 97.939-176.18 218.75" fill="url(#d)"/>
 </g>
 <g transform="translate(1.5056 -305.19)">
  <path d="m455.38 488.17c-7.2402 0.7468-14.685 5.1239-17.719 11.918-0.31465 1.0762 1.8289 3.1036 1.9337 1.2305 1.9186-6.1607 8.3723-10.945 14.942-9.3519 6.2401 0.75364 11.909 4.1136 17.069 7.26 1.3952-1.3536 0.0698-3.2062-1.7051-3.0939-2.7057-0.30251-4.9151-1.9456-5.9944-4.3771-2.1656-2.4498-5.2656-3.7516-8.5257-3.5861z" fill="#0ff"/>
  <path d="m469.38 524.27c-17.873-0.45086-34.853 23.567-37.248 23.105 5.729-11.728 25.647-29.311 37.248-23.105z" fill="#0ff"/>
  <path d="m398.02 478.7c0.70387 8.9203 4.0587 22.147 4.0751 24.155 0 16.306 0.8036 30.604 0.8036 46.91-10.749 0.32114-3.6569-1.6556-5.6823-2.458 0-16.306 0.80361-52.301 0.80361-68.607z" fill="#17280b"/>
  <path d="m416.67 557.57c-18.008-9.7334-39.159-10.362-58.881-14.397 16.704-2.5155 42.019 3.5689 59.588 12.034l1.2089 1.081-1.9156 1.2823z" fill="#0ff"/>
  <path d="m351.37 543.25c-14.339 27.662 3.9685 56.616 15.163 81.794 6.574 8.5871 26.065 40.67 7.9132 18.56-15.694-22.532-28.105-48.631-32.16-75.924 0.14054-6.18 1.0822-27.323 9.084-24.43z" fill="#0ff"/>
  <path d="m361.02 564.65c16.841 6.1684 20.185 14.409 25.087 67.208-2.3232 20.656-4.3603-28.489-7.7182-39.518-1.1013-17.482-12.038-15.787-17.369-27.69z" fill="#0ff"/>
  <path d="m397.22 581.58c10.749-0.66721 3.6569 3.4396 5.6823 5.1068v101.64c-10.749 0.66723-3.6569-3.4396-5.6823-5.1068v-101.64z" fill="#17280b"/>
  <path d="m437.26 556.97c9.8288 15.186-5.1933 38.945-23.528 31.824-19.942-7.3179-41.268-27.209-56.245-34.667 25.154 4.3007 39.746 34.15 66.294 33.007 16.869-2.6868 12.314-22.217 13.48-30.164z" fill="#0ff"/>
  <path d="m391.19 647.56c19.203 3.7316 8.5492 33.787 10.731 41.936-7.3736-14.523 2.308-33.879-10.731-41.936z" fill="#0ff"/>
  <path d="m384.46 659.39c4.0786 9.6402 7.8039 36.079 18.908 33.397-4.825 11.247-17.594-17.683-19.859-25.895 0.90323-1.62-6.2779-9.5525 0.95094-7.5014z" fill="#0ff"/>
  <path d="m432.57 588.56c-6.0008 18.902-7.058 39.11-15.136 57.442-3.3805 16.413 13.329 31.996 1.8863 48.344-2.093 9.2902-11.688 32.984-7.4145 11.024 7.2303-15.8 11.573-33.197 1.365-48.817-0.076-18.208 10.921-34.462 11.793-52.811 2.144-3.7174 0.71767-18.554 7.506-15.18z" fill="#0ff"/>
  <path d="m410.73 718.14c-0.85964 12.185-3.9415 18.609-1.6089-1.5637 1.3346-2.1584-3.2667-1.9586 1.6089 1.5637z" fill="#0ff"/>
  <path d="m408.67 731.85c18.885 3.2868-4.3011 23.896 3.1082 34.949 2.7164 17.035-37.664 7.8901-12.606-3.653 4.7058-9.2498 7.0212-37.102 7.636-13.38 3.4545 9.4832-20.776 24.393-3.6608 22.501 12.877-1.106-1.5347-22.388 9.7343-31.123 2.4621-7.1674-4.3612-4.2095-4.2122-9.2938z" fill="#0ff"/>
  <path d="m398.18 469.08c-0.10474 9.3295 0.16367 22.601 3.6206 31.301 2.1263 4.3308 2.3174-5.8623 1.9087-7.6363-0.70874-9.2651 0.17636-19.315-5.1601-27.444l-0.36915 3.7794zm4.8166 36.177c1.3602 9.3006 1.2223 20.041 7.9104 27.423 5.6476 4.169 13.008 1.0224 18.695-1.3359 7.555-3.2776 35.172-5.5784 42.597-9.0658-0.45182-1.5027-0.0665-3.6884-2.9432-3.3977-10.057 5.1901-38.468 10.948-50.368 10.899-7.5172-1.345-10.181-9.757-11.917-16.155-1.3074-3.575-0.71257-7.8013-3.1659-10.899l-0.80862 2.5314z" fill="#0ff"/>
  <path d="m409.2 467.62c3.8063 13.07 9.2977 26.068 10.618 39.658 0.52197 3.9366 3.4026 8.705 7.9983 7.8226 7.9115-1.1574 22.766-4.535 30.361-6.2555-4.6545-2.1217-17.66-0.83502-21.945 0.78113-3.0356 1.4277-6.2464 2.3106-9.348 3.4704-4.8732 0.35858-6.3553-5.5278-7.2776-9.2464-2.6694-10.371-2.072-21.794-7.0842-31.448-1.3464-1.787-2.3206-3.8241-3.5861-5.678l0.15873 0.53967z" fill="#0ff"/>
  <path d="m396.98 468.15c-24.351-8.4598 12.774-37.798-6.2716-7.5553-2.0776 3.754 11.122 3.6457 6.2716 7.5553z" fill="#0ff"/>
  <path d="m397.29 581.47c-2.7815 20.716-2.8676 41.865 0.64908 62.522-9.0193-5.7407-5.0573-28.648-5.772-40.948 2.0452-5.1012-2.8092-23.019 5.123-21.574z" fill="#0ff"/>
  <path d="m397.73 693.2c1.5477 15.914-0.65914 32.596 8.1948 46.836-4.536 8.7164-13.35-24.956-10.73-35.07 0.99249-3.1111-3.9-13.373 2.5353-11.766z" fill="#0ff"/>
  <path d="m396.45 694.93c12.207-0.51554 4.1529 2.6577 6.453 3.9459v78.531c-12.207 0.51554-4.1529-2.6577-6.453-3.9458v-78.531z" fill="#17280b"/>
  <path d="m477.65 500.09c2.5121 12.315 25.124 26.891 23.064 32.433-8.1811-7.4389-26.324-23.324-23.064-32.433z" fill="#0ff"/>
  <path d="m471.95 523.88c11.457 3.0398 28.416 22.71 8.4345 7.7168-1.1721-3.2796-12.31-3.8722-8.4345-7.7168z" fill="#0ff"/>
  <path d="m504.56 529.97c-1.3128-25.156 28.401-3.4649 31.782 10.134 5.8212 7.4718-8.455 29.386-13.028 25.485 27.734-19.794-6.6219-52.109-15.053-45.139-3.4327 2.3938 0.66113 10.374-3.7016 9.5203z" fill="#0ff"/>
  <path d="m499.86 545.4c-16.63 19.811-32.994 49.299-17.606 74.419 16.886 21.213 25.694 52.75-3.1934 69.222-8.8742 6.3708-18.787 15.314-1.1325 11.295 16.185 7e-3 35.313-7.829 48.525-9.0132-16.065 7.2582-52.488 19.492-61.715 6.873 20.241-14.833 44.806-40.649 21.678-64.335-14.821-19.295-17.873-45.556-4.9896-66.736 4.7868-6.1413 11.198-22.34 18.434-21.724z" fill="#0ff"/>
  <path d="m529.45 564.24c-15.063 22.703-0.25764 46.329 10.38 67.043 10.54 24.766 4.485 48.048-19.825 57.776-22.282 12.436 10.564-8.2097 14.013-16.491 14.896-23.34-0.61272-48.391-11.291-69.684-6.0083-11.387-2.8153-33.197 6.7237-38.643z" fill="#0ff"/>
  <path d="m517.07 542.65c18.564 19.421 2.8875 38.346-13.233 50.932-6.5602 13.644-2.5676 52.386-7.055 18.218-6.713-26.984 40.016-33.804 22.083-60.261 0.78972-2.6323-8.1836-8.2715-1.7945-8.8895z" fill="#0ff"/>
  <path d="m422.73 537.06c-1.7703 12.08-16.838 19.298-3.5874 4.9674 0.76772-2.7292 0.61953-7.0024 3.5874-4.9674z" fill="#0ff"/>
  <path d="m397.22 336.44c10.749-0.69102 3.6569 3.5624 5.6823 5.289v105.26c-10.749 0.69102-3.6569-3.5624-5.6823-5.289v-105.26z" fill="#17280b"/>
  <path d="m407.35 463.04c-2.6492-3.0671-5.4715-7.0904-6.9859-10.447-0.81967-5.9322 8.4957 6.4152 6.9859 10.447z" fill="#0ff"/>
  <path d="m405.72 442.22c8.511 8.0715 1.4021 24.081 0.92516 6.4485-0.31894-1.7661-6.3081-6.6102-0.92516-6.4485z" fill="#0ff"/>
  <path d="m621.52 544.4c0.79283 86.774-43.517 177.04-122.62 217.31-60.496 31.961-138.21 24.129-192.12-17.579-79.809-59.531-110.26-169.95-86.523-264.64 18.109-77.284 76.212-148.73 155.54-167.36 66.083-16.648 138.09 9.9575 182.32 60.649 42.033 46.419 63.559 109.38 63.41 171.62z" fill="url(#a)"/>
 </g>
</svg>
